<?xml version="1.0" encoding="UTF-8" standalone="no"?>
<!-- Created with Inkscape (http://www.inkscape.org/) -->

<svg
   xmlns:dc="http://purl.org/dc/elements/1.1/"
   xmlns:cc="http://creativecommons.org/ns#"
   xmlns:rdf="http://www.w3.org/1999/02/22-rdf-syntax-ns#"
   xmlns:svg="http://www.w3.org/2000/svg"
   xmlns="http://www.w3.org/2000/svg"
   xmlns:sodipodi="http://sodipodi.sourceforge.net/DTD/sodipodi-0.dtd"
   xmlns:inkscape="http://www.inkscape.org/namespaces/inkscape"
   width="350"
   height="118.14976"
   id="svg2"
   version="1.1"
   inkscape:version="0.48.1 "
   sodipodi:docname="Nilkamal Plastics logo.svg">
  <defs
     id="defs4">
    <clipPath
       id="clipPath3115"
       clipPathUnits="userSpaceOnUse">
      <path
         id="path3117"
         d="m 504,704.682 44.59,0 0,38.808 -44.59,0 0,-38.808 z"
         inkscape:connector-curvature="0" />
    </clipPath>
    <clipPath
       id="clipPath3075"
       clipPathUnits="userSpaceOnUse">
      <path
         id="path3077"
         d="m 0,774.06 594,0 0,-774 -594,0 0,774 z"
         inkscape:connector-curvature="0" />
    </clipPath>
    <clipPath
       id="clipPath3059"
       clipPathUnits="userSpaceOnUse">
      <path
         id="path3061"
         d="m 347.913,343.98 -31.122,0 0,-142.083 107.189,0 0,114.84 c 0,0 0,27.243 -27.25,27.243"
         inkscape:connector-curvature="0" />
    </clipPath>
    <clipPath
       id="clipPath3053"
       clipPathUnits="userSpaceOnUse">
      <path
         id="path3055"
         d="m 316.791,201.811 108.159,0 0,143.675 -108.159,0 0,-143.675 z"
         inkscape:connector-curvature="0" />
    </clipPath>
    <clipPath
       id="clipPath3041"
       clipPathUnits="userSpaceOnUse">
      <path
         id="path3043"
         d="m 309.15,343.98 -27.252,0 0,-114.831 c 0,0 0,-27.252 27.252,-27.252 l 7.96,0 0,142.083 -7.96,0 z m -57.114,0 -87.579,0 c -27.093,0 -27.251,-26.924 -27.252,-27.24 0,-0.002 0,-0.003 0,-0.003 l 0,-114.84 114.831,0 c 27.146,0 27.252,27.04 27.252,27.251 0,0 0,0 0,0.001 l 0,114.831"
         inkscape:connector-curvature="0" />
    </clipPath>
    <clipPath
       id="clipPath3035"
       clipPathUnits="userSpaceOnUse">
      <path
         id="path3037"
         d="m 137.117,201.811 179.992,0 0,143.675 -179.992,0 0,-143.675 z"
         inkscape:connector-curvature="0" />
    </clipPath>
    <clipPath
       id="clipPath3023"
       clipPathUnits="userSpaceOnUse">
      <path
         id="path3025"
         d="m 492.53,488.628 -31.9,0 0,-142.083 107.96,0 0,114.84 c 0,0 0,27.243 -27.25,27.243"
         inkscape:connector-curvature="0" />
    </clipPath>
    <clipPath
       id="clipPath3017"
       clipPathUnits="userSpaceOnUse">
      <path
         id="path3019"
         d="m 460.63,345.168 108.15,0 0,143.675 -108.15,0 0,-143.675 z"
         inkscape:connector-curvature="0" />
    </clipPath>
    <clipPath
       id="clipPath3005"
       clipPathUnits="userSpaceOnUse">
      <path
         id="path3007"
         d="m 453.76,488.628 -27.25,0 0,-114.831 c 0,0 0,-27.252 27.25,-27.252 l 7.18,0 0,142.083 -7.18,0 z m -56.9,0 -87.575,0 c -27.093,0 -27.251,-26.924 -27.252,-27.24 0,-0.002 0,-0.003 0,-0.003 l 0,-114.84 114.827,0 c 27.15,0 27.26,27.04 27.26,27.251 0,0 0,0 0,0.001 l 0,114.831"
         inkscape:connector-curvature="0" />
    </clipPath>
    <clipPath
       id="clipPath2999"
       clipPathUnits="userSpaceOnUse">
      <path
         id="path3001"
         d="m 280.952,345.168 179.988,0 0,143.675 -179.988,0 0,-143.675 z"
         inkscape:connector-curvature="0" />
    </clipPath>
    <clipPath
       id="clipPath4279"
       clipPathUnits="userSpaceOnUse">
      <path
         id="path4281"
         d="m 480.24,766.32 47.64,0 0,-27.84 -47.64,0 0,27.84 z"
         inkscape:connector-curvature="0" />
    </clipPath>
    <clipPath
       id="clipPath4259"
       clipPathUnits="userSpaceOnUse">
      <path
         id="path4261"
         d="m 480.24,766.32 47.64,0 0,-27.84 -47.64,0 0,27.84 z"
         inkscape:connector-curvature="0" />
    </clipPath>
    <clipPath
       id="clipPath4007"
       clipPathUnits="userSpaceOnUse">
      <path
         id="path4009"
         d="m 146.201,767.149 -66.641,0 0,-28.549 66.641,0 0,28.549 z"
         inkscape:connector-curvature="0" />
    </clipPath>
    <clipPath
       id="clipPath4279-8"
       clipPathUnits="userSpaceOnUse">
      <path
         inkscape:connector-curvature="0"
         id="path4281-4"
         d="m 480.24,766.32 47.64,0 0,-27.84 -47.64,0 0,27.84 z" />
    </clipPath>
    <clipPath
       id="clipPath4259-0"
       clipPathUnits="userSpaceOnUse">
      <path
         inkscape:connector-curvature="0"
         id="path4261-3"
         d="m 480.24,766.32 47.64,0 0,-27.84 -47.64,0 0,27.84 z" />
    </clipPath>
    <clipPath
       id="clipPath51274"
       clipPathUnits="userSpaceOnUse">
      <path
         id="path51276"
         d="m 0.55,612 610.8,0 0,-610.8 -610.8,0 0,610.8 z"
         inkscape:connector-curvature="0" />
    </clipPath>
  </defs>
  <sodipodi:namedview
     id="base"
     pagecolor="#ffffff"
     bordercolor="#666666"
     borderopacity="1.0"
     inkscape:pageopacity="0.0"
     inkscape:pageshadow="2"
     inkscape:zoom="1"
     inkscape:cx="169.08756"
     inkscape:cy="-13.64083"
     inkscape:document-units="px"
     inkscape:current-layer="layer1"
     showgrid="false"
     fit-margin-top="0"
     fit-margin-left="0"
     fit-margin-right="0"
     fit-margin-bottom="0"
     inkscape:window-width="1024"
     inkscape:window-height="721"
     inkscape:window-x="-4"
     inkscape:window-y="-4"
     inkscape:window-maximized="1" />
  <metadata
     id="metadata7">
    <rdf:RDF>
      <cc:Work
         rdf:about="">
        <dc:format>image/svg+xml</dc:format>
        <dc:type
           rdf:resource="http://purl.org/dc/dcmitype/StillImage" />
        <dc:title></dc:title>
      </cc:Work>
    </rdf:RDF>
  </metadata>
  <g
     inkscape:label="Layer 1"
     inkscape:groupmode="layer"
     id="layer1"
     transform="translate(-382.49155,243.8258)">
    <g
       transform="matrix(1.5415697,0,0,1.5415697,-560.87161,237.36718)"
       id="g51343">
      <path
         id="path51292"
         style="fill:#371071;fill-opacity:1;fill-rule:evenodd;stroke:none"
         d="m 716.43598,-256.63606 c 10.065,0 15.71625,-7.3775 15.71625,-16.63375 0,-9.2575 -5.65125,-16.5825 -15.71625,-16.5825 l 0,7.1275 c 5.35375,0 7.38625,4.7525 7.38625,9.455 0,4.7525 -2.0325,9.455 -7.38625,9.455 l 0,7.17875 z m -15.76625,-16.63375 c 0,9.25625 5.7025,16.63375 15.76625,16.63375 l 0,-7.17875 c -5.40375,0 -7.43625,-4.7025 -7.43625,-9.455 0,-4.7025 2.0325,-9.455 7.43625,-9.455 l 0,-7.1275 c -10.06375,0 -15.76625,7.325 -15.76625,16.5825 z m 44.9175,6.1375 c 1.4375,-0.295 3.025,-0.49375 3.9175,-1.03875 0.1475,4.455 -0.8925,6.535 -3.9175,6.78125 l 0,4.2575 c 1.5375,-0.44375 2.925,-1.2375 4.065,-2.37625 0.05,0.7425 0.14875,1.48625 0.4475,2.17875 l 7.635,0 c -0.89375,-1.83375 -0.89375,-3.96 -0.89375,-5.94125 l 0,-10.1475 c 0,-6.53375 -5.3525,-7.7725 -10.8075,-7.7725 -0.14875,0 -0.2975,0 -0.44625,0.05 l 0,4.9025 c 0.0987,0 0.1975,0 0.3475,0 1.53625,0 3.66875,0.6425 3.66875,2.375 0,1.435 -0.74375,1.88125 -2.0325,2.1775 -0.64625,0.0987 -1.29,0.19875 -1.98375,0.2975 l 0,4.25625 z m -3.91625,3.16875 c 0,-1.83125 1.4375,-2.575 3.12125,-2.97 0.25,-0.05 0.5475,-0.10125 0.795,-0.19875 l 0,-4.25625 c -5.10625,0.7425 -11.5025,1.09 -11.5025,7.72125 0,4.80375 3.47125,7.03125 7.8825,7.03125 1.24,0 2.43125,-0.15 3.62,-0.49625 l 0,-4.2575 c -0.2475,0.0513 -0.49625,0.0513 -0.74375,0.0513 -1.68625,0 -3.1725,-0.745 -3.1725,-2.625 z m 3.91625,-17.1775 0,4.9025 c -1.93375,0.0975 -3.12375,1.03875 -3.47125,2.87125 l -7.0875,0 c 0.0975,-3.02125 1.53625,-5.00125 3.61875,-6.19 1.9325,-1.0875 4.46125,-1.58375 6.94,-1.58375 z m 15.5175,23.81125 7.635,0 0,-12.62375 c 0,-2.57375 1.23875,-4.95 4.115,-4.95 4.115,0 3.76875,3.2175 3.76875,6.38625 l 0,11.1875 7.635,0 0,-14.85125 c 0,-3.365 -0.645,-9.01 -8.38,-9.01 -2.775,0 -5.9,1.48625 -7.28625,3.8625 l -0.1,0 0,-3.16875 -7.3875,0 0,23.1675 z m 38.57125,-18.02 c 3.2725,0 4.51125,3.06875 4.51125,6.435 0,2.9225 -0.8425,6.43625 -4.51125,6.43625 -0.05,0 -0.05,0 -0.0987,0 l 0,5.64375 c 1.88375,-0.39625 3.47,-1.48625 4.61,-3.16875 l 0.05,0 0,2.67375 7.2875,0 0,-32.5225 -7.585,0 -0.05,11.88 -0.0987,0 c -1.09125,-1.48625 -2.48,-2.47625 -4.21375,-2.92125 l 0,5.54375 c 0.0488,0 0.0488,0 0.0987,0 z m -0.0987,12.87125 c -3.42125,-0.0487 -4.5625,-3.51375 -4.5625,-6.6825 0,-2.92125 1.14125,-6.1375 4.5625,-6.18875 l 0,-5.54375 c -0.74375,-0.1975 -1.5375,-0.2975 -2.38125,-0.2975 -6.59125,0 -9.815,5.7425 -9.815,11.7825 0,6.48375 3.12375,12.7725 10.41125,12.7725 0.595,0 1.23875,-0.1 1.785,-0.19875 l 0,-5.64375 z m 27.1675,-12.87125 c 3.52,0 4.61125,3.515 4.61125,6.485 0,2.92125 -1.09125,6.38625 -4.61125,6.38625 l 0,5.8425 c 7.18875,-0.0513 12.24625,-5.2975 12.24625,-12.22875 0,-6.98 -5.0575,-12.27625 -12.24625,-12.32625 l 0,5.84125 z m -4.61,6.485 c 0,-2.97 1.04,-6.485 4.61,-6.485 l 0,-5.84125 c -7.18875,0 -12.195,5.34625 -12.195,12.32625 0,6.93125 5.00625,12.22875 12.195,12.22875 l 0,-5.8425 c -3.57,0 -4.61,-3.465 -4.61,-6.38625"
         inkscape:connector-curvature="0" />
      <path
         id="path51294"
         style="fill:#f5d400;fill-opacity:1;fill-rule:evenodd;stroke:none"
         d="m 647.01348,-312.14481 c 22.065,0 35.06125,14.3275 35.06125,38.25375 0,24.06 -12.99625,38.38875 -35.06125,38.38875 -22.06625,0 -35.06375,-14.32875 -35.06375,-38.38875 0,-23.92625 12.9975,-38.25375 35.06375,-38.25375"
         inkscape:connector-curvature="0" />
      <path
         id="path51296"
         style="fill:#f2b300;fill-opacity:1;fill-rule:evenodd;stroke:none"
         d="m 647.01348,-239.82856 c -18.8175,0 -26.39875,-16.49125 -26.39875,-34.0625 0,-17.5725 7.58125,-34.06375 26.39875,-34.06375 18.81625,0 26.3975,16.49125 26.3975,34.06375 0,17.57125 -7.58125,34.0625 -26.3975,34.0625"
         inkscape:connector-curvature="0" />
      <path
         id="path51298"
         style="fill:#e86e18;fill-opacity:1;fill-rule:evenodd;stroke:none"
         d="m 661.22723,-288.08481 c 9.34125,9.3275 14.35,22.30375 4.06125,32.5775 -10.28875,10.1375 -23.285,5.13625 -32.49,-4.05625 -9.34125,-9.32625 -14.35,-22.3025 -4.06125,-32.57625 10.1525,-10.2725 23.285,-5.27125 32.49,4.055"
         inkscape:connector-curvature="0" />
      <path
         id="path51300"
         style="fill:#d30021;fill-opacity:1;fill-rule:evenodd;stroke:none"
         d="m 636.99473,-283.75856 c 6.76875,-6.75875 15.83875,-10.0025 22.87875,-2.975 7.175,7.03 3.79,16.08625 -2.8425,22.845 -6.76875,6.62375 -15.83875,10.0025 -22.87875,2.97375 -7.175,-7.165 -3.79,-16.22125 2.8425,-22.84375"
         inkscape:connector-curvature="0" />
      <path
         id="path51302"
         style="fill:#371071;fill-opacity:1;fill-rule:evenodd;stroke:none"
         d="m 647.01348,-264.69981 c -5.82125,0 -11.6425,-2.5675 -11.6425,-9.19125 0,-6.48875 5.82125,-9.0575 11.6425,-9.0575 5.82,0 11.64125,2.56875 11.64125,9.0575 0,6.62375 -5.82125,9.19125 -11.64125,9.19125"
         inkscape:connector-curvature="0" />
    </g>
  </g>
</svg>
